<svg xmlns="http://www.w3.org/2000/svg" xmlns:xlink="http://www.w3.org/1999/xlink" width="1366" zoomAndPan="magnify" viewBox="0 0 1024.5 576" height="768" preserveAspectRatio="xMidYMid meet" version="1.0"><defs><filter x="0%" y="0%" width="100%" height="100%" id="30deeaaf2d"><feColorMatrix values="0 0 0 0 1 0 0 0 0 1 0 0 0 0 1 0 0 0 1 0" color-interpolation-filters="sRGB"/></filter><clipPath id="1f4c72e257"><path d="M 0 0.140625 L 1024 0.140625 L 1024 575.859375 L 0 575.859375 Z M 0 0.140625 " clip-rule="nonzero"/></clipPath><clipPath id="d14df9248d"><path d="M 632 233 L 1024 233 L 1024 575.859375 L 632 575.859375 Z M 632 233 " clip-rule="nonzero"/></clipPath><mask id="f708deef06"><g filter="url(#30deeaaf2d)"><rect x="-102.45" width="1229.4" fill="#000000" y="-57.6" height="691.2" fill-opacity="0.27"/></g></mask><clipPath id="d345b87dcc"><path d="M 0.578125 0.785156 L 391.886719 0.785156 L 391.886719 342.859375 L 0.578125 342.859375 Z M 0.578125 0.785156 " clip-rule="nonzero"/></clipPath><clipPath id="6fff270973"><path d="M 210 22 L 391.886719 22 L 391.886719 342.859375 L 210 342.859375 Z M 210 22 " clip-rule="nonzero"/></clipPath><clipPath id="91fb619852"><path d="M 37 249 L 218 249 L 218 342.859375 L 37 342.859375 Z M 37 249 " clip-rule="nonzero"/></clipPath><clipPath id="dd487ab04d"><path d="M 90 298 L 171 298 L 171 342.859375 L 90 342.859375 Z M 90 298 " clip-rule="nonzero"/></clipPath><clipPath id="60d172cb17"><path d="M 272 44 L 391.886719 44 L 391.886719 232 L 272 232 Z M 272 44 " clip-rule="nonzero"/></clipPath><clipPath id="390d1b1e84"><path d="M 325 79 L 391.886719 79 L 391.886719 192 L 325 192 Z M 325 79 " clip-rule="nonzero"/></clipPath><clipPath id="d5f9e6a50a"><path d="M 240 216 L 391.886719 216 L 391.886719 342.859375 L 240 342.859375 Z M 240 216 " clip-rule="nonzero"/></clipPath><clipPath id="23466a8dec"><path d="M 280 245 L 391.886719 245 L 391.886719 342.859375 L 280 342.859375 Z M 280 245 " clip-rule="nonzero"/></clipPath><clipPath id="2ac7557ff1"><path d="M 316 288 L 391.886719 288 L 391.886719 342.859375 L 316 342.859375 Z M 316 288 " clip-rule="nonzero"/></clipPath><clipPath id="5e99290497"><rect x="0" width="392" y="0" height="343"/></clipPath></defs><g clip-path="url(#1f4c72e257)"><path fill="#ffffff" d="M 0 0.140625 L 1024 0.140625 L 1024 575.859375 L 0 575.859375 Z M 0 0.140625 " fill-opacity="1" fill-rule="nonzero"/><path fill="#f8f8f8" d="M 0 0.140625 L 1024 0.140625 L 1024 575.859375 L 0 575.859375 Z M 0 0.140625 " fill-opacity="1" fill-rule="nonzero"/></g><g clip-path="url(#d14df9248d)"><g mask="url(#f708deef06)"><g transform="matrix(1, 0, 0, 1, 632, 233)"><g clip-path="url(#5e99290497)"><g clip-path="url(#d345b87dcc)"><path fill="#e34547" d="M 391.988281 7.296875 L 391.988281 9.515625 C 365.761719 3.917969 336.378906 -0.398438 308.996094 7.34375 C 281.902344 15.003906 253.546875 40.042969 254.371094 71.355469 C 254.503906 76.542969 255.433594 81.789062 256.332031 86.859375 C 257.113281 91.269531 257.917969 95.828125 258.21875 100.390625 C 259.019531 112.496094 255.441406 122.515625 248.402344 127.875 C 240.867188 133.609375 230.933594 133.367188 221.332031 133.132812 C 211.269531 132.886719 201.761719 132.652344 195.015625 138.785156 C 186.710938 146.335938 186.570312 159.695312 194.589844 179.617188 C 198.167969 188.503906 200.109375 195.960938 200.523438 202.417969 C 201.09375 211.257812 198.722656 218.125 193.46875 222.839844 C 184.195312 231.15625 170.441406 228.675781 158.308594 226.488281 C 157.515625 226.347656 156.730469 226.203125 155.953125 226.066406 C 149.066406 224.847656 142.25 224.988281 136.769531 226.457031 C 130.171875 228.222656 125.96875 231.730469 124.269531 236.875 C 122.484375 242.292969 124.179688 247.90625 125.976562 253.847656 C 127.59375 259.1875 129.261719 264.714844 128.28125 270.25 C 127.152344 276.625 122.847656 281.78125 115.832031 285.15625 C 109.996094 287.964844 102.472656 289.371094 95.191406 289.011719 C 91.660156 288.839844 88.042969 288.4375 84.546875 288.046875 C 74.855469 286.96875 64.832031 285.855469 55.996094 289.578125 C 48.265625 292.839844 42.28125 299.519531 37.003906 305.417969 L 3.492188 342.855469 L 0.582031 342.855469 L 35.386719 303.96875 C 40.816406 297.902344 46.96875 291.023438 55.152344 287.578125 C 64.507812 283.636719 74.816406 284.78125 84.785156 285.890625 C 88.25 286.273438 91.832031 286.671875 95.296875 286.84375 C 109.011719 287.519531 124.011719 281.910156 126.140625 269.871094 C 127.03125 264.847656 125.4375 259.574219 123.898438 254.476562 C 122.082031 248.472656 120.207031 242.265625 122.207031 236.195312 C 124.121094 230.394531 128.960938 226.300781 136.207031 224.359375 C 141.992188 222.8125 149.136719 222.660156 156.332031 223.929688 C 157.113281 224.066406 157.898438 224.210938 158.691406 224.355469 C 170.339844 226.453125 183.539062 228.835938 192.019531 221.226562 C 200.414062 213.695312 200.59375 200.351562 192.574219 180.429688 C 188.992188 171.523438 187.035156 164.070312 186.597656 157.644531 C 185.996094 148.808594 188.335938 141.925781 193.554688 137.183594 C 200.945312 130.464844 211.332031 130.71875 221.382812 130.964844 C 230.613281 131.1875 240.15625 131.417969 247.085938 126.148438 C 256.246094 119.171875 256.40625 105.914062 256.050781 100.535156 C 255.757812 96.089844 254.960938 91.589844 254.191406 87.238281 C 253.28125 82.089844 252.339844 76.761719 252.199219 71.414062 C 252 63.851562 253.429688 56.320312 256.445312 49.03125 C 259.273438 42.199219 263.433594 35.707031 268.808594 29.742188 C 273.960938 24.023438 280.046875 18.976562 286.898438 14.753906 C 293.691406 10.566406 300.925781 7.371094 308.40625 5.257812 C 336.089844 -2.570312 365.613281 1.691406 391.984375 7.296875 Z M 391.988281 7.296875 " fill-opacity="1" fill-rule="nonzero"/></g><g clip-path="url(#6fff270973)"><path fill="#e34547" d="M 391.988281 25.585938 L 391.988281 29.972656 C 372.023438 27.09375 351.527344 24.625 331.625 28.902344 C 308.402344 33.894531 289.871094 49.007812 284.410156 67.40625 C 281.625 76.796875 282 86.539062 282.398438 96.855469 C 282.597656 102.027344 282.804688 107.371094 282.566406 112.628906 C 282.183594 121.175781 280.03125 129.527344 276.503906 136.132812 C 272.273438 144.066406 266.164062 149.359375 258.835938 151.4375 C 253.226562 153.03125 247.460938 152.59375 241.882812 152.167969 C 240.070312 152.03125 238.199219 151.890625 236.386719 151.824219 C 230.410156 151.609375 222.433594 152.496094 218.359375 157.925781 C 216.027344 161.042969 215.292969 165.058594 216.113281 170.210938 C 216.847656 174.808594 218.625 179.46875 220.699219 184.644531 C 230.347656 208.75 234.683594 234.621094 238.871094 259.640625 C 240.203125 267.585938 241.605469 276.800781 241.386719 285.589844 C 241.136719 295.5625 238.863281 303.65625 234.433594 310.335938 C 232.03125 313.964844 229.011719 317.074219 226.09375 320.082031 C 223.558594 322.695312 221.164062 325.164062 219.125 327.949219 C 216.011719 332.210938 213.890625 337.949219 214.820312 342.859375 L 210.425781 342.859375 C 210.175781 341.039062 210.214844 339.105469 210.546875 337.09375 C 211.203125 333.125 213.007812 328.964844 215.625 325.390625 C 217.839844 322.359375 220.453125 319.664062 222.980469 317.058594 C 225.886719 314.0625 228.636719 311.234375 230.820312 307.9375 C 239.476562 294.882812 237.542969 277.980469 234.589844 260.355469 C 230.4375 235.566406 226.144531 209.933594 216.667969 186.257812 C 213 177.09375 207.976562 164.542969 214.886719 155.324219 C 220.085938 148.390625 229.535156 147.234375 236.546875 147.484375 C 238.441406 147.554688 240.363281 147.699219 242.214844 147.839844 C 247.652344 148.253906 252.789062 148.644531 257.652344 147.265625 C 271.871094 143.226562 277.625 125.980469 278.234375 112.433594 C 278.460938 107.359375 278.261719 102.105469 278.0625 97.027344 C 277.667969 86.808594 277.261719 76.25 280.253906 66.171875 C 283.332031 55.785156 290.054688 46.34375 299.675781 38.871094 C 308.460938 32.050781 319.191406 27.136719 330.714844 24.660156 C 340.605469 22.535156 351.535156 21.84375 364.132812 22.542969 C 373.578125 23.070312 383.160156 24.324219 391.988281 25.589844 Z M 391.988281 25.585938 " fill-opacity="1" fill-rule="nonzero"/></g><g clip-path="url(#91fb619852)"><path fill="#e34547" d="M 216.152344 281.921875 C 213.753906 288.914062 207.78125 293.390625 202.003906 297.71875 C 196.269531 302.015625 190.851562 306.074219 189.265625 312.195312 C 187.808594 317.839844 190.097656 323.933594 192.3125 329.832031 C 192.589844 330.566406 192.875 331.332031 193.148438 332.078125 C 194.59375 336.023438 195.429688 339.621094 195.660156 342.855469 L 191.3125 342.855469 C 191.082031 340.121094 190.335938 337.019531 189.070312 333.570312 C 188.804688 332.839844 188.523438 332.085938 188.246094 331.355469 C 185.796875 324.828125 183.261719 318.078125 185.066406 311.109375 C 187.03125 303.511719 193.316406 298.800781 199.398438 294.246094 C 204.894531 290.128906 210.082031 286.242188 212.046875 280.511719 C 215.230469 271.238281 207.773438 260.894531 198.8125 257.054688 C 189.003906 252.851562 177.546875 253.933594 167.4375 254.882812 C 153.789062 256.171875 146.28125 260.011719 144.484375 266.628906 C 143.980469 268.484375 143.984375 270.507812 143.988281 272.648438 C 143.988281 273.636719 143.992188 274.65625 143.941406 275.683594 C 143.121094 292.347656 129.105469 304.644531 116.257812 310.59375 C 107.523438 314.640625 98.101562 316.953125 88.988281 319.191406 C 83.832031 320.457031 78.5 321.765625 73.398438 323.367188 C 63.238281 326.554688 50.378906 332.4375 42.976562 342.855469 L 37.796875 342.855469 C 40.914062 337.625 45.414062 332.976562 51.210938 329.003906 C 56.957031 325.0625 63.984375 321.773438 72.097656 319.226562 C 77.332031 317.582031 82.730469 316.257812 87.953125 314.976562 C 96.863281 312.789062 106.078125 310.527344 114.433594 306.65625 C 126.128906 301.242188 138.878906 290.203125 139.601562 275.472656 C 139.644531 274.558594 139.644531 273.636719 139.644531 272.660156 C 139.640625 270.324219 139.636719 267.910156 140.292969 265.492188 C 141.652344 260.488281 145.320312 256.660156 151.1875 254.121094 C 155.289062 252.347656 160.472656 251.183594 167.027344 250.566406 C 173.007812 250 178.398438 249.546875 183.832031 249.71875 C 190.277344 249.921875 195.738281 251.015625 200.519531 253.066406 C 205.96875 255.398438 210.828125 259.664062 213.859375 264.761719 C 217.199219 270.390625 218.015625 276.484375 216.148438 281.921875 Z M 216.152344 281.921875 " fill-opacity="1" fill-rule="nonzero"/></g><g clip-path="url(#dd487ab04d)"><path fill="#e34547" d="M 170.0625 310.105469 C 169.898438 312.640625 169.191406 315.070312 168.503906 317.417969 C 168.1875 318.515625 167.855469 319.648438 167.589844 320.757812 C 165.875 328.003906 166.65625 335.628906 167.992188 342.855469 L 165.785156 342.855469 C 164.449219 335.519531 163.699219 327.761719 165.480469 320.257812 C 165.757812 319.089844 166.09375 317.933594 166.421875 316.808594 C 167.105469 314.472656 167.75 312.261719 167.894531 309.96875 C 168.078125 307.152344 167.238281 303.296875 164.285156 301.691406 C 160.8125 299.804688 156.089844 302.179688 153.53125 305.566406 C 152.089844 307.480469 151.050781 309.628906 149.953125 311.90625 C 149.007812 313.867188 148.03125 315.890625 146.773438 317.746094 C 140.089844 327.59375 127.347656 330.589844 116.101562 333.234375 L 115.230469 333.4375 C 108.335938 335.0625 99.625 337.679688 93.558594 342.855469 L 90.378906 342.855469 C 96.804688 336.269531 106.894531 333.171875 114.730469 331.328125 L 115.605469 331.117188 C 126.460938 328.566406 138.769531 325.671875 144.976562 316.527344 C 146.144531 314.800781 147.085938 312.851562 147.996094 310.964844 C 149.09375 308.695312 150.226562 306.34375 151.800781 304.261719 C 154.867188 300.195312 160.652344 297.246094 165.320312 299.78125 C 169.171875 301.878906 170.28125 306.652344 170.0625 310.105469 Z M 170.0625 310.105469 " fill-opacity="1" fill-rule="nonzero"/></g><g clip-path="url(#60d172cb17)"><path fill="#e34547" d="M 310.5625 75.0625 C 306.214844 85.1875 306.945312 96.855469 307.648438 108.136719 C 307.820312 110.894531 307.996094 113.75 308.101562 116.539062 C 308.59375 130.097656 306.386719 148.113281 293.046875 156.941406 C 291.164062 158.1875 289.105469 159.21875 287.113281 160.21875 C 282.855469 162.351562 278.835938 164.371094 277.125 168.101562 C 274.753906 173.277344 278.078125 179.492188 282.171875 183.074219 C 291.394531 191.152344 304.078125 191.457031 317.507812 191.789062 C 323.460938 191.933594 329.617188 192.082031 335.464844 192.96875 C 347.082031 194.726562 358.609375 199.621094 370.699219 207.925781 C 378.136719 213.035156 385.105469 218.933594 391.988281 225.179688 L 391.988281 231.078125 C 373.640625 214.183594 356.164062 200.492188 334.816406 197.261719 C 329.238281 196.417969 323.21875 196.269531 317.402344 196.128906 C 303.789062 195.796875 289.714844 195.453125 279.308594 186.339844 C 276.464844 183.851562 274.234375 180.644531 273.023438 177.3125 C 271.609375 173.414062 271.660156 169.601562 273.179688 166.296875 C 275.523438 161.175781 280.425781 158.71875 285.167969 156.339844 C 287.132812 155.355469 288.984375 154.425781 290.652344 153.324219 C 302.308594 145.609375 304.214844 129.152344 303.761719 116.703125 C 303.660156 113.96875 303.484375 111.144531 303.3125 108.410156 C 302.578125 96.621094 301.816406 84.429688 306.570312 73.351562 C 309.832031 65.765625 315.675781 59.117188 323.472656 54.128906 C 330.558594 49.597656 338.992188 46.542969 347.863281 45.300781 C 362.710938 43.214844 378.003906 45.695312 391.984375 48.480469 L 391.984375 52.90625 C 377.671875 50.027344 362.992188 47.5625 348.464844 49.601562 C 334.589844 51.546875 317.347656 59.257812 310.558594 75.066406 Z M 310.5625 75.0625 " fill-opacity="1" fill-rule="nonzero"/></g><g clip-path="url(#390d1b1e84)"><path fill="#e34547" d="M 346.71875 112.40625 C 346.621094 114.90625 346.824219 117.488281 347.019531 119.988281 C 347.316406 123.816406 347.625 127.773438 346.910156 131.671875 C 345.75 138.019531 341.777344 143.839844 336.289062 147.234375 C 335.535156 147.703125 334.738281 148.136719 333.972656 148.558594 C 331.621094 149.84375 329.398438 151.058594 328.226562 153.136719 C 327.164062 155.015625 327.414062 156.972656 327.808594 158.277344 C 328.570312 160.785156 330.503906 163.074219 332.855469 164.261719 C 337.074219 166.382812 342.21875 166.019531 347.152344 165.308594 C 347.632812 165.238281 348.113281 165.167969 348.59375 165.097656 C 353.238281 164.40625 358.039062 163.691406 362.695312 164.910156 C 369.695312 166.738281 374.675781 172.410156 379.492188 177.890625 C 383.460938 182.40625 387.261719 186.734375 391.988281 188.875 L 391.988281 191.226562 C 386.371094 189.011719 382.058594 184.101562 377.859375 179.324219 C 373.257812 174.089844 368.503906 168.671875 362.144531 167.011719 C 357.917969 165.90625 353.339844 166.585938 348.914062 167.242188 C 348.429688 167.316406 347.945312 167.386719 347.464844 167.457031 C 342.179688 168.21875 336.636719 168.59375 331.878906 166.199219 C 329.015625 164.757812 326.660156 161.964844 325.734375 158.910156 C 325 156.488281 325.214844 154.058594 326.335938 152.070312 C 327.816406 149.453125 330.417969 148.03125 332.929688 146.65625 C 333.710938 146.230469 334.445312 145.828125 335.148438 145.394531 C 340.125 142.3125 343.726562 137.039062 344.777344 131.28125 C 345.441406 127.664062 345.15625 124.019531 344.855469 120.160156 C 344.65625 117.597656 344.449219 114.949219 344.550781 112.324219 C 345.027344 99.726562 353.0625 87.753906 364.539062 82.535156 C 373.128906 78.628906 383.304688 78.664062 391.988281 82.253906 L 391.988281 84.609375 C 383.671875 80.894531 373.761719 80.726562 365.4375 84.511719 C 354.691406 89.398438 347.167969 100.609375 346.71875 112.40625 Z M 346.71875 112.40625 " fill-opacity="1" fill-rule="nonzero"/></g><g clip-path="url(#d5f9e6a50a)"><path fill="#e34547" d="M 391.988281 245.988281 L 391.988281 248.460938 C 367.117188 234.621094 340.375 224.863281 312.328125 219.402344 C 307.351562 218.433594 301.660156 217.585938 297.070312 219.839844 C 289.84375 223.378906 288.046875 233.015625 288.703125 240.195312 C 288.992188 243.367188 289.625 246.59375 290.242188 249.710938 C 291.207031 254.617188 292.207031 259.6875 291.933594 264.816406 C 291.640625 270.261719 289.898438 275.828125 286.75 281.363281 C 284.171875 285.902344 280.558594 290.566406 276.015625 295.226562 C 273.132812 298.183594 270.046875 301.023438 267.0625 303.769531 C 261.78125 308.636719 256.316406 313.667969 251.910156 319.414062 C 248.878906 323.367188 242.894531 332.488281 242.890625 342.855469 L 240.738281 342.855469 C 240.75 339.925781 241.199219 336.886719 242.089844 333.769531 C 243.609375 328.441406 246.410156 323.023438 250.1875 318.09375 C 254.710938 312.195312 260.242188 307.101562 265.59375 302.171875 C 268.554688 299.445312 271.617188 296.625 274.460938 293.710938 C 284.25 283.675781 289.253906 274.183594 289.765625 264.699219 C 290.027344 259.839844 289.054688 254.902344 288.113281 250.128906 C 287.488281 246.957031 286.839844 243.675781 286.539062 240.390625 C 286.125 235.847656 286.652344 231.265625 288.03125 227.488281 C 289.664062 223 292.460938 219.683594 296.117188 217.886719 C 301.308594 215.34375 307.421875 216.234375 312.746094 217.269531 C 328.683594 220.375 344.476562 224.953125 359.6875 230.886719 C 370.761719 235.207031 381.582031 240.265625 391.988281 245.984375 Z M 391.988281 245.988281 " fill-opacity="1" fill-rule="nonzero"/></g><path fill="#e34547" d="M 267.492188 225.039062 C 266.960938 223.195312 266.375 221.316406 265.808594 219.503906 C 263.277344 211.367188 260.660156 202.949219 261.832031 194.632812 C 262.007812 193.382812 262.234375 192.082031 262.472656 190.703125 C 263.574219 184.355469 264.824219 177.160156 261.355469 172.554688 C 259.515625 170.113281 256.5 168.652344 252.390625 168.214844 C 247.984375 167.742188 243.660156 168.832031 240.207031 171.285156 C 236.628906 173.824219 234.394531 177.578125 233.910156 181.84375 C 233.195312 188.144531 235.566406 195.039062 237.863281 201.707031 C 238.960938 204.898438 239.996094 207.910156 240.632812 210.695312 C 243.527344 223.363281 244.78125 236.308594 244.355469 249.164062 L 244.351562 249.339844 C 244.253906 252.257812 244.144531 255.566406 245.765625 258.308594 C 247.410156 261.085938 250.714844 262.785156 254.210938 262.785156 C 254.832031 262.785156 255.460938 262.734375 256.082031 262.621094 C 259.546875 262.007812 262.832031 259.808594 265.335938 256.429688 C 268.335938 252.378906 269.902344 247.253906 269.992188 241.199219 C 270.0625 236.46875 269.222656 231.03125 267.492188 225.039062 Z M 263.589844 255.136719 C 261.417969 258.066406 258.617188 259.964844 255.703125 260.480469 C 252.488281 261.050781 249.09375 259.671875 247.632812 257.199219 C 246.335938 255.007812 246.429688 252.160156 246.523438 249.414062 L 246.527344 249.234375 C 246.957031 236.191406 245.6875 223.0625 242.75 210.210938 C 242.089844 207.3125 241.035156 204.246094 239.914062 201 C 237.699219 194.558594 235.40625 187.898438 236.066406 182.089844 C 236.851562 175.195312 242.960938 170.273438 250.351562 170.273438 C 250.945312 170.273438 251.550781 170.304688 252.160156 170.371094 C 255.695312 170.75 258.136719 171.890625 259.617188 173.859375 C 262.523438 177.714844 261.359375 184.417969 260.332031 190.332031 C 260.089844 191.726562 259.859375 193.046875 259.679688 194.332031 C 258.441406 203.128906 261.132812 211.78125 263.738281 220.148438 C 264.296875 221.953125 264.878906 223.816406 265.40625 225.640625 C 269.132812 238.554688 268.519531 248.480469 263.589844 255.136719 Z M 263.589844 255.136719 " fill-opacity="1" fill-rule="nonzero"/><g clip-path="url(#23466a8dec)"><path fill="#e34547" d="M 391.988281 266.28125 L 391.988281 271.175781 C 377.441406 263.535156 362.179688 257.296875 346.5625 252.609375 C 337.144531 249.78125 324.703125 248.113281 318.90625 256.230469 C 315.015625 261.675781 315.832031 268.886719 316.699219 276.523438 C 317.351562 282.246094 318.023438 288.160156 316.757812 293.78125 C 314.570312 303.535156 307.25 310.1875 300.171875 316.621094 C 298.96875 317.714844 297.726562 318.847656 296.550781 319.957031 C 293.371094 322.960938 283.996094 332.765625 285.105469 342.855469 L 280.730469 342.855469 C 280.394531 339.003906 281.207031 334.9375 283.160156 330.710938 C 285.925781 324.730469 290.347656 319.84375 293.570312 316.796875 C 294.777344 315.660156 296.035156 314.515625 297.253906 313.40625 C 303.832031 307.425781 310.632812 301.242188 312.523438 292.828125 C 313.625 287.921875 312.996094 282.375 312.386719 277.011719 C 311.464844 268.898438 310.511719 260.507812 315.371094 253.707031 C 321.140625 245.628906 332.359375 243.8125 347.8125 248.449219 C 362.972656 253.003906 377.804688 258.992188 391.988281 266.28125 Z M 391.988281 266.28125 " fill-opacity="1" fill-rule="nonzero"/></g><g clip-path="url(#2ac7557ff1)"><path fill="#e34547" d="M 391.988281 304.222656 L 391.988281 306.40625 C 387.777344 306.042969 383.179688 304.515625 378.101562 301.808594 C 376.121094 300.757812 374.160156 299.597656 372.265625 298.472656 C 368.160156 296.042969 363.917969 293.527344 359.375 292.0625 C 353.953125 290.316406 346.011719 290 341.019531 294.671875 C 342.574219 299.289062 340.03125 304.265625 337.257812 307.222656 C 335.511719 309.085938 333.476562 310.625 331.511719 312.113281 C 329.992188 313.265625 328.417969 314.453125 327.03125 315.757812 C 319.871094 322.507812 317.253906 333.519531 320.167969 342.859375 L 317.90625 342.859375 C 315.082031 332.890625 317.957031 321.328125 325.542969 314.179688 C 327.015625 312.792969 328.636719 311.566406 330.199219 310.382812 C 332.183594 308.882812 334.054688 307.464844 335.675781 305.738281 C 338.136719 303.109375 340.425781 298.675781 338.753906 294.832031 C 338.582031 294.433594 338.664062 293.964844 338.96875 293.648438 C 341.429688 291.078125 344.859375 289.433594 348.890625 288.894531 C 352.410156 288.421875 356.367188 288.816406 360.039062 290 C 364.8125 291.539062 369.164062 294.117188 373.371094 296.609375 C 375.242188 297.71875 377.179688 298.867188 379.117188 299.898438 C 383.855469 302.421875 388.117188 303.859375 391.984375 304.226562 Z M 391.988281 304.222656 " fill-opacity="1" fill-rule="nonzero"/></g></g></g></g></g></svg>